<?xml version="1.0" encoding="UTF-8"?>
<!DOCTYPE svg PUBLIC "-//W3C//DTD SVG 1.1//EN" "http://www.w3.org/Graphics/SVG/1.1/DTD/svg11.dtd">
<svg xmlns="http://www.w3.org/2000/svg" version="1.1" width="32px" height="32px" style="shape-rendering:geometricPrecision; text-rendering:geometricPrecision; image-rendering:optimizeQuality; fill-rule:evenodd; clip-rule:evenodd" xmlns:xlink="http://www.w3.org/1999/xlink">
<g><path style="opacity:1" fill="#fdf9eb" d="M -0.5,-0.5 C 10.1667,-0.5 20.8333,-0.5 31.5,-0.5C 31.5,10.1667 31.5,20.8333 31.5,31.5C 20.8333,31.5 10.1667,31.5 -0.5,31.5C -0.5,20.8333 -0.5,10.1667 -0.5,-0.5 Z"/></g>
<g><path style="opacity:1" fill="#dbd5d0" d="M 5.5,10.5 C 11.2641,10.8596 12.9308,13.6929 10.5,19C 9.5777,18.5839 8.41104,18.0839 7,17.5C 6.16667,17.6667 5.33333,17.8333 4.5,18C 5.34025,19.6665 4.84025,19.8331 3,18.5C 1.83657,15.0289 2.6699,12.3623 5.5,10.5 Z"/></g>
<g><path style="opacity:1" fill="#a299a4" d="M 20.5,13.5 C 24.2965,14.9114 24.2965,15.9114 20.5,16.5C 20.5,15.5 20.5,14.5 20.5,13.5 Z"/></g>
<g><path style="opacity:1" fill="#9f97a2" d="M 12.5,13.5 C 14.9732,13.9473 15.1399,14.9473 13,16.5C 12.5172,15.552 12.3505,14.552 12.5,13.5 Z"/></g>
<g><path style="opacity:1" fill="#9b939f" d="M 24.5,13.5 C 28.31,14.7542 28.31,15.7542 24.5,16.5C 24.5,15.5 24.5,14.5 24.5,13.5 Z"/></g>
<g><path style="opacity:1" fill="#a79fa8" d="M 17.5,13.5 C 18.2389,13.369 18.9056,13.5357 19.5,14C 18.1667,14.6667 18.1667,15.3333 19.5,16C 15.6573,16.651 14.9906,15.8176 17.5,13.5 Z"/></g>
</svg>
