<svg width="232" height="232" viewBox="0 0 232 232" fill="none" xmlns="http://www.w3.org/2000/svg">
<path d="M121.892 212.206H15.7735C12.0326 212.206 9 209.174 9 205.432V15.7735C9 12.0326 12.0326 9 15.7735 9H205.432C209.174 9 212.206 12.0326 212.206 15.7735V121.892" stroke="black" stroke-width="16.9338" stroke-linecap="round" stroke-linejoin="round"/>
<path d="M9 155.76L88.0246 121.892L150.115 150.115" stroke="black" stroke-width="16.9338" stroke-linecap="round" stroke-linejoin="round"/>
<path d="M155.76 88.0246C143.29 88.0246 133.182 77.9159 133.182 65.4461C133.182 52.9764 143.29 42.8677 155.76 42.8677C168.23 42.8677 178.338 52.9764 178.338 65.4461C178.338 77.9159 168.23 88.0246 155.76 88.0246Z" stroke="black" stroke-width="16.9338" stroke-linecap="round" stroke-linejoin="round"/>
<path d="M155.76 189.628H189.628M189.628 189.628H223.495M189.628 189.628V155.76M189.628 189.628V223.495" stroke="black" stroke-width="16.9338" stroke-linecap="round" stroke-linejoin="round"/>
</svg>
