<svg width="34" height="34" viewBox="0 0 34 34" fill="none" xmlns="http://www.w3.org/2000/svg">
<path d="M28.25 32C29.4926 32 30.5 30.9926 30.5 29.75C30.5 28.5074 29.4926 27.5 28.25 27.5C27.0074 27.5 26 28.5074 26 29.75C26 30.9926 27.0074 32 28.25 32Z" fill="black" stroke="black" stroke-width="2.5" stroke-linecap="round" stroke-linejoin="round"/>
<path d="M13.25 32C14.4926 32 15.5 30.9926 15.5 29.75C15.5 28.5074 14.4926 27.5 13.25 27.5C12.0074 27.5 11 28.5074 11 29.75C11 30.9926 12.0074 32 13.25 32Z" fill="black" stroke="black" stroke-width="2.5" stroke-linecap="round" stroke-linejoin="round"/>
<path d="M6.5 5H32L29 21.5H9.5L6.5 5ZM6.5 5C6.25 3.99999 5 2 2 2" stroke="black" stroke-width="2.5" stroke-linecap="round" stroke-linejoin="round"/>
<path d="M28.9999 21.5H9.49988H6.84603C4.16957 21.5 2.74988 22.6718 2.74988 24.5C2.74988 26.3282 4.16957 27.5 6.84603 27.5H28.2499" stroke="black" stroke-width="2.5" stroke-linecap="round" stroke-linejoin="round"/>
</svg>
