<svg width="25" height="25" viewBox="0 0 25 25" fill="none" xmlns="http://www.w3.org/2000/svg">
<path d="M19.7916 4.1665H5.20825C4.37945 4.1665 3.58459 4.49574 2.99854 5.0818C2.41249 5.66785 2.08325 6.4627 2.08325 7.2915V17.7082C2.08325 18.537 2.41249 19.3318 2.99854 19.9179C3.58459 20.5039 4.37945 20.8332 5.20825 20.8332H19.7916C20.6204 20.8332 21.4152 20.5039 22.0013 19.9179C22.5873 19.3318 22.9166 18.537 22.9166 17.7082V7.2915C22.9166 6.4627 22.5873 5.66785 22.0013 5.0818C21.4152 4.49574 20.6204 4.1665 19.7916 4.1665ZM19.0937 6.24984L12.4999 11.1978L5.90617 6.24984H19.0937ZM19.7916 18.7498H5.20825C4.93198 18.7498 4.66703 18.6401 4.47168 18.4447C4.27633 18.2494 4.16659 17.9844 4.16659 17.7082V7.55192L11.8749 13.3332C12.0552 13.4684 12.2745 13.5415 12.4999 13.5415C12.7253 13.5415 12.9446 13.4684 13.1249 13.3332L20.8333 7.55192V17.7082C20.8333 17.9844 20.7235 18.2494 20.5282 18.4447C20.3328 18.6401 20.0679 18.7498 19.7916 18.7498Z" fill="#FDFAEB"/>
</svg>
