<?xml version="1.0" encoding="UTF-8"?>
<!DOCTYPE svg PUBLIC "-//W3C//DTD SVG 1.1//EN" "http://www.w3.org/Graphics/SVG/1.1/DTD/svg11.dtd">
<svg xmlns="http://www.w3.org/2000/svg" version="1.1" width="1200px" height="1200px" style="shape-rendering:geometricPrecision; text-rendering:geometricPrecision; image-rendering:optimizeQuality; fill-rule:evenodd; clip-rule:evenodd" xmlns:xlink="http://www.w3.org/1999/xlink">
<g><path style="opacity:0.949" fill="#615671" d="M 275.5,404.5 C 332.62,435.934 389.287,468.267 445.5,501.5C 446.833,566.833 446.833,632.167 445.5,697.5C 389.452,730.049 333.286,762.383 277,794.5C 220.714,762.383 164.548,730.049 108.5,697.5C 107.167,632.167 107.167,566.833 108.5,501.5C 164.393,469.392 220.06,437.059 275.5,404.5 Z M 275.5,422.5 C 277.308,422.491 278.975,422.991 280.5,424C 330.167,452.833 379.833,481.667 429.5,510.5C 430.833,569.833 430.833,629.167 429.5,688.5C 378.732,717.967 327.899,747.3 277,776.5C 226.101,747.3 175.268,717.967 124.5,688.5C 123.167,629.167 123.167,569.833 124.5,510.5C 175.06,481.392 225.394,452.059 275.5,422.5 Z M 229.5,584.5 C 261.167,584.5 292.833,584.5 324.5,584.5C 325.084,592.174 325.751,599.841 326.5,607.5C 293.176,616.79 259.842,616.79 226.5,607.5C 227.22,599.792 228.22,592.125 229.5,584.5 Z"/></g>
<g><path style="opacity:0.949" fill="#615671" d="M 268.5,524.5 C 296.313,522.328 311.646,534.995 314.5,562.5C 309.5,562.5 304.5,562.5 299.5,562.5C 297.055,544.778 287.055,537.612 269.5,541C 259.941,544.941 254.941,552.108 254.5,562.5C 249.5,562.5 244.5,562.5 239.5,562.5C 240.126,542.88 249.793,530.214 268.5,524.5 Z"/></g>
<g><path style="opacity:0.955" fill="#615671" d="M 752.5,547.5 C 759.167,547.5 765.833,547.5 772.5,547.5C 772.5,581.167 772.5,614.833 772.5,648.5C 765.833,648.5 759.167,648.5 752.5,648.5C 752.5,614.833 752.5,581.167 752.5,547.5 Z"/></g>
<g><path style="opacity:0.956" fill="#615671" d="M 926.5,547.5 C 933.167,547.5 939.833,547.5 946.5,547.5C 946.333,559.505 946.5,571.505 947,583.5C 954.281,575.928 963.114,573.428 973.5,576C 982.745,579.598 987.911,586.431 989,596.5C 989.5,613.83 989.667,631.163 989.5,648.5C 982.833,648.5 976.167,648.5 969.5,648.5C 969.667,631.83 969.5,615.163 969,598.5C 967.466,593.311 963.966,590.977 958.5,591.5C 953.442,591.278 949.609,593.278 947,597.5C 946.5,614.497 946.333,631.497 946.5,648.5C 939.833,648.5 933.167,648.5 926.5,648.5C 926.5,614.833 926.5,581.167 926.5,547.5 Z"/></g>
<g><path style="opacity:0.956" fill="#615671" d="M 686.5,551.5 C 698.639,549.891 709.973,552.058 720.5,558C 729.553,564.94 734.22,574.107 734.5,585.5C 727.833,585.5 721.167,585.5 714.5,585.5C 712.579,570.793 704.245,565.293 689.5,569C 681.156,573.173 676.989,580.006 677,589.5C 675.975,600.285 676.642,610.951 679,621.5C 682.108,629.432 687.941,633.098 696.5,632.5C 707.956,632.713 713.956,627.046 714.5,615.5C 721.167,615.5 727.833,615.5 734.5,615.5C 732.108,638.471 719.274,649.804 696,649.5C 677.915,649.627 665.581,641.294 659,624.5C 654.819,609.916 654.486,595.249 658,580.5C 662.35,565.651 671.85,555.985 686.5,551.5 Z"/></g>
<g><path style="opacity:0.963" fill="#615671" d="M 487.5,552.5 C 503.17,552.333 518.837,552.5 534.5,553C 556.784,559.059 564.284,573.226 557,595.5C 553.777,601.723 548.943,606.223 542.5,609C 549.5,622 556.5,635 563.5,648C 555.812,648.831 548.145,648.665 540.5,647.5C 535.089,636.343 529.422,625.343 523.5,614.5C 518.544,613.506 513.544,613.173 508.5,613.5C 508.5,625.167 508.5,636.833 508.5,648.5C 501.5,648.5 494.5,648.5 487.5,648.5C 487.5,616.5 487.5,584.5 487.5,552.5 Z M 508.5,568.5 C 516.988,567.989 525.321,568.822 533.5,571C 537.64,573.95 539.307,577.95 538.5,583C 539.396,589.544 536.729,593.877 530.5,596C 523.229,597.3 515.896,597.8 508.5,597.5C 508.5,587.833 508.5,578.167 508.5,568.5 Z"/></g>
<g><path style="opacity:0.963" fill="#615671" d="M 879.5,559.5 C 886.167,559.5 892.833,559.5 899.5,559.5C 899.5,565.5 899.5,571.5 899.5,577.5C 903.5,577.5 907.5,577.5 911.5,577.5C 911.5,582.167 911.5,586.833 911.5,591.5C 907.5,591.5 903.5,591.5 899.5,591.5C 899.333,604.837 899.5,618.171 900,631.5C 903.583,633.29 907.416,633.957 911.5,633.5C 911.5,638.5 911.5,643.5 911.5,648.5C 905.203,649.539 898.87,649.706 892.5,649C 885.667,647.5 881.5,643.333 880,636.5C 879.5,621.504 879.333,606.504 879.5,591.5C 875.833,591.5 872.167,591.5 868.5,591.5C 868.5,586.833 868.5,582.167 868.5,577.5C 872.167,577.5 875.833,577.5 879.5,577.5C 879.5,571.5 879.5,565.5 879.5,559.5 Z"/></g>
<g><path style="opacity:0.968" fill="#615671" d="M 216.5,569.5 C 256.833,569.5 297.167,569.5 337.5,569.5C 339.51,583.227 341.843,596.893 344.5,610.5C 342.305,614.862 338.972,618.028 334.5,620C 318.783,626.175 302.45,629.342 285.5,629.5C 284.24,635.575 280.573,637.741 274.5,636C 271.735,634.903 270.069,632.903 269.5,630C 257.755,628.907 246.089,627.24 234.5,625C 223.859,624.186 215.526,619.519 209.5,611C 212.098,597.245 214.431,583.411 216.5,569.5 Z M 229.5,584.5 C 228.22,592.125 227.22,599.792 226.5,607.5C 259.842,616.79 293.176,616.79 326.5,607.5C 325.751,599.841 325.084,592.174 324.5,584.5C 292.833,584.5 261.167,584.5 229.5,584.5 Z"/></g>
<g><path style="opacity:0.961" fill="#615671" d="M 601.5,575.5 C 621.185,572.187 634.018,579.853 640,598.5C 641.21,605.112 641.71,611.778 641.5,618.5C 626.5,618.5 611.5,618.5 596.5,618.5C 596.868,624.367 599.534,628.867 604.5,632C 614.494,635.521 622.994,633.355 630,625.5C 633.727,628.724 636.894,632.391 639.5,636.5C 632.528,645.65 623.194,649.983 611.5,649.5C 588.578,648.578 576.578,636.578 575.5,613.5C 575.329,594.436 583.996,581.77 601.5,575.5 Z M 605.5,591.5 C 616.185,590.19 621.519,594.857 621.5,605.5C 613.167,605.5 604.833,605.5 596.5,605.5C 597.005,599.142 600.005,594.475 605.5,591.5 Z"/></g>
<g><path style="opacity:0.957" fill="#615671" d="M 816.5,575.5 C 843.904,573.073 857.904,585.573 858.5,613C 857.447,640.051 843.447,652.051 816.5,649C 798.685,643.591 790.019,631.424 790.5,612.5C 790.149,593.455 798.815,581.121 816.5,575.5 Z M 820.5,591.5 C 829.992,590.157 835.825,594.157 838,603.5C 838.848,610.899 838.515,618.233 837,625.5C 832.494,633.444 825.994,635.611 817.5,632C 813.908,628.984 811.742,625.151 811,620.5C 809.685,612.161 810.685,604.161 814,596.5C 815.805,594.174 817.972,592.508 820.5,591.5 Z"/></g>
<g><path style="opacity:0.94" fill="#615671" d="M 207.5,624.5 C 212.353,627.093 217.353,629.426 222.5,631.5C 222.833,632.167 223.167,632.833 223.5,633.5C 222.313,639.48 221.313,645.48 220.5,651.5C 258.167,651.5 295.833,651.5 333.5,651.5C 332.594,645.162 331.594,638.829 330.5,632.5C 330.833,631.833 331.167,631.167 331.5,630.5C 335.953,628.774 340.286,626.774 344.5,624.5C 347.909,638.61 350.575,652.943 352.5,667.5C 344.833,667.5 337.167,667.5 329.5,667.5C 329.5,669.833 329.5,672.167 329.5,674.5C 324.5,674.5 319.5,674.5 314.5,674.5C 314.5,672.167 314.5,669.833 314.5,667.5C 289.5,667.5 264.5,667.5 239.5,667.5C 239.5,669.833 239.5,672.167 239.5,674.5C 234.5,674.5 229.5,674.5 224.5,674.5C 224.5,672.167 224.5,669.833 224.5,667.5C 216.833,667.5 209.167,667.5 201.5,667.5C 203.686,653.197 205.686,638.863 207.5,624.5 Z"/></g>
</svg>
